<?xml version="1.0" encoding="UTF-8" standalone="no"?>
<!DOCTYPE svg PUBLIC "-//W3C//DTD SVG 1.1//EN" "http://www.w3.org/Graphics/SVG/1.1/DTD/svg11.dtd">
<svg xmlns="http://www.w3.org/2000/svg" version="1.1" viewBox="0.00 0.00 260.00 200.00">
<g stroke-width="2.00" fill="none" stroke-linecap="butt">
<path stroke="#d29c2f" stroke-opacity="0.604" vector-effect="non-scaling-stroke" d="
  M 189.55 12.83
  Q 197.42 17.81 203.35 25.25"/>
<path stroke="#9c7323" stroke-opacity="0.824" vector-effect="non-scaling-stroke" d="
  M 203.35 25.25
  Q 210.67 34.98 215.17 46.50
  A 0.71 0.70 77.2 0 0 215.86 46.94
  Q 216.80 46.90 217.62 46.52"/>
<path stroke="#d29c2f" stroke-opacity="0.604" vector-effect="non-scaling-stroke" d="
  M 217.62 46.52
  L 220.41 46.29"/>
<path stroke="#d29c2f" stroke-opacity="0.604" vector-effect="non-scaling-stroke" d="
  M 247.09 52.48
  L 251.07 57.32"/>
<path stroke="#9c7323" stroke-opacity="0.824" vector-effect="non-scaling-stroke" d="
  M 251.07 57.32
  Q 252.60 61.40 252.12 64.03
  Q 248.59 83.54 250.15 103.98
  Q 251.25 118.43 252.52 133.00
  C 253.03 138.89 253.13 146.70 252.91 152.47
  C 252.59 161.17 246.83 170.19 238.53 173.63
  Q 235.48 174.90 227.81 174.90
  Q 123.54 174.86 17.77 174.61
  Q 15.50 174.61 13.20 174.38"/>
<path stroke="#d29c2f" stroke-opacity="0.604" vector-effect="non-scaling-stroke" d="
  M 13.20 174.38
  Q 9.82 173.76 7.36 171.43"/>
<path stroke="#ca7534" vector-effect="non-scaling-stroke" d="
  M 152.70 40.70
  Q 152.44 40.81 149.47 41.70
  Q 143.20 43.59 141.62 49.46
  A 0.80 0.78 -80.3 0 1 140.80 50.05
  Q 132.27 49.41 124.87 53.04
  A 0.35 0.35 0.0 0 1 124.37 52.72
  Q 124.31 41.74 125.12 31.79
  Q 125.44 27.94 124.03 24.97
  C 122.03 20.73 118.14 20.34 113.44 20.98
  Q 105.54 22.04 95.29 22.30
  Q 92.42 22.38 87.60 24.29
  A 1.21 1.20 -39.3 0 1 86.48 24.18
  Q 83.09 22.01 81.50 21.99
  Q 72.03 21.85 57.73 21.85
  Q 52.11 21.85 49.42 24.57
  A 0.68 0.67 -48.0 0 1 48.52 24.62
  Q 44.84 21.57 39.26 21.95
  Q 30.06 22.59 22.60 22.10
  Q 15.02 21.61 12.67 22.89
  Q 7.95 25.44 8.05 31.74
  C 8.31 48.32 9.43 68.48 8.95 85.76
  Q 8.50 102.32 8.13 112.62
  C 7.50 130.55 7.92 144.63 7.75 161.13
  C 7.69 167.98 10.99 170.08 17.50 170.07
  Q 34.16 170.06 228.67 170.50
  C 232.76 170.51 237.08 169.99 240.26 167.52
  C 246.94 162.33 248.60 155.93 248.54 147.43
  Q 248.49 140.06 248.20 136.51
  Q 246.45 115.26 245.50 96.25
  Q 244.77 81.93 247.54 63.75
  Q 247.84 61.74 246.76 59.10
  C 245.55 56.14 242.02 54.93 238.94 54.08
  Q 229.34 51.43 221.28 50.71
  Q 217.40 50.36 214.99 52.77
  A 0.70 0.69 -51.4 0 1 214.14 52.87
  Q 211.89 51.45 211.44 50.08
  C 204.78 29.70 189.13 11.24 166.27 9.86
  Q 151.10 8.95 137.71 16.11
  C 130.51 19.96 129.69 29.20 136.80 33.74
  Q 143.79 38.20 152.62 39.90
  A 0.42 0.42 0.0 0 1 152.70 40.70"/>
<path stroke="#c75b33" vector-effect="non-scaling-stroke" d="
  M 149.20 51.28
  C 152.59 54.66 154.79 55.56 160.24 58.39
  C 166.76 61.78 173.48 63.23 180.51 64.02
  Q 187.75 64.84 191.33 71.93
  Q 193.60 76.42 198.33 88.65
  Q 200.23 93.56 203.05 96.70
  A 1.76 1.76 0.0 0 0 205.82 96.51
  Q 207.32 94.30 207.82 91.32
  Q 212.32 64.19 199.00 40.07
  C 192.33 27.98 181.58 19.47 168.01 17.24
  C 159.50 15.84 148.56 18.55 140.92 22.59
  A 3.06 2.87 -22.7 0 0 139.37 26.04
  Q 139.65 26.93 141.09 27.82
  Q 145.79 30.68 154.36 32.98
  C 161.30 34.84 166.50 36.62 171.63 39.40
  A 1.71 1.71 0.0 0 1 172.30 41.76
  Q 171.49 43.19 169.31 43.82
  Q 160.50 46.36 151.55 48.53
  Q 150.07 48.89 149.11 50.28
  A 0.78 0.77 -50.3 0 0 149.20 51.28"/>
</g>
<path fill="#fdbc39" d="
  M 189.55 12.83
  Q 197.42 17.81 203.35 25.25
  Q 210.67 34.98 215.17 46.50
  A 0.71 0.70 77.2 0 0 215.86 46.94
  Q 216.80 46.90 217.62 46.52
  L 220.41 46.29
  Q 234.92 47.29 247.09 52.48
  L 251.07 57.32
  Q 252.60 61.40 252.12 64.03
  Q 248.59 83.54 250.15 103.98
  Q 251.25 118.43 252.52 133.00
  C 253.03 138.89 253.13 146.70 252.91 152.47
  C 252.59 161.17 246.83 170.19 238.53 173.63
  Q 235.48 174.90 227.81 174.90
  Q 123.54 174.86 17.77 174.61
  Q 15.50 174.61 13.20 174.38
  Q 9.82 173.76 7.36 171.43
  Q 3.10 167.81 3.14 163.51
  Q 3.22 155.39 3.17 152.00
  Q 2.89 133.35 3.46 115.50
  Q 4.70 77.39 4.42 68.51
  Q 3.61 42.25 3.47 36.25
  Q 3.36 31.72 3.55 28.84
  A 4.77 4.41 -37.5 0 1 3.72 27.85
  C 5.94 20.24 11.99 17.18 19.80 17.63
  Q 29.80 18.19 42.67 17.52
  Q 44.08 17.44 48.54 19.20
  A 1.11 1.11 0.0 0 0 49.43 19.17
  Q 53.07 17.48 55.01 17.47
  Q 62.45 17.41 78.02 17.40
  Q 84.12 17.39 87.03 19.16
  A 1.21 1.20 -37.9 0 0 88.03 19.28
  Q 91.95 18.00 97.40 17.82
  C 104.42 17.59 110.22 16.45 117.02 16.20
  Q 122.88 15.98 127.04 21.18
  A 0.34 0.34 0.0 0 0 127.61 21.11
  Q 130.66 14.61 137.34 11.32
  Q 142.24 8.90 149.48 7.03
  Q 170.77 1.50 189.55 12.83
  Z
  M 152.70 40.70
  Q 152.44 40.81 149.47 41.70
  Q 143.20 43.59 141.62 49.46
  A 0.80 0.78 -80.3 0 1 140.80 50.05
  Q 132.27 49.41 124.87 53.04
  A 0.35 0.35 0.0 0 1 124.37 52.72
  Q 124.31 41.74 125.12 31.79
  Q 125.44 27.94 124.03 24.97
  C 122.03 20.73 118.14 20.34 113.44 20.98
  Q 105.54 22.04 95.29 22.30
  Q 92.42 22.38 87.60 24.29
  A 1.21 1.20 -39.3 0 1 86.48 24.18
  Q 83.09 22.01 81.50 21.99
  Q 72.03 21.85 57.73 21.85
  Q 52.11 21.85 49.42 24.57
  A 0.68 0.67 -48.0 0 1 48.52 24.62
  Q 44.84 21.57 39.26 21.95
  Q 30.06 22.59 22.60 22.10
  Q 15.02 21.61 12.67 22.89
  Q 7.95 25.44 8.05 31.74
  C 8.31 48.32 9.43 68.48 8.95 85.76
  Q 8.50 102.32 8.13 112.62
  C 7.50 130.55 7.92 144.63 7.75 161.13
  C 7.69 167.98 10.99 170.08 17.50 170.07
  Q 34.16 170.06 228.67 170.50
  C 232.76 170.51 237.08 169.99 240.26 167.52
  C 246.94 162.33 248.60 155.93 248.54 147.43
  Q 248.49 140.06 248.20 136.51
  Q 246.45 115.26 245.50 96.25
  Q 244.77 81.93 247.54 63.75
  Q 247.84 61.74 246.76 59.10
  C 245.55 56.14 242.02 54.93 238.94 54.08
  Q 229.34 51.43 221.28 50.71
  Q 217.40 50.36 214.99 52.77
  A 0.70 0.69 -51.4 0 1 214.14 52.87
  Q 211.89 51.45 211.44 50.08
  C 204.78 29.70 189.13 11.24 166.27 9.86
  Q 151.10 8.95 137.71 16.11
  C 130.51 19.96 129.69 29.20 136.80 33.74
  Q 143.79 38.20 152.62 39.90
  A 0.42 0.42 0.0 0 1 152.70 40.70
  Z"/>
<path fill="#972e2f" d="
  M 152.70 40.70
  A 0.42 0.42 0.0 0 0 152.62 39.90
  Q 143.79 38.20 136.80 33.74
  C 129.69 29.20 130.51 19.96 137.71 16.11
  Q 151.10 8.95 166.27 9.86
  C 189.13 11.24 204.78 29.70 211.44 50.08
  Q 211.89 51.45 214.14 52.87
  A 0.70 0.69 -51.4 0 0 214.99 52.77
  Q 217.40 50.36 221.28 50.71
  Q 229.34 51.43 238.94 54.08
  C 242.02 54.93 245.55 56.14 246.76 59.10
  Q 247.84 61.74 247.54 63.75
  Q 244.77 81.93 245.50 96.25
  Q 246.45 115.26 248.20 136.51
  Q 248.49 140.06 248.54 147.43
  C 248.60 155.93 246.94 162.33 240.26 167.52
  C 237.08 169.99 232.76 170.51 228.67 170.50
  Q 34.16 170.06 17.50 170.07
  C 10.99 170.08 7.69 167.98 7.75 161.13
  C 7.92 144.63 7.50 130.55 8.13 112.62
  Q 8.50 102.32 8.95 85.76
  C 9.43 68.48 8.31 48.32 8.05 31.74
  Q 7.95 25.44 12.67 22.89
  Q 15.02 21.61 22.60 22.10
  Q 30.06 22.59 39.26 21.95
  Q 44.84 21.57 48.52 24.62
  A 0.68 0.67 -48.0 0 0 49.42 24.57
  Q 52.11 21.85 57.73 21.85
  Q 72.03 21.85 81.50 21.99
  Q 83.09 22.01 86.48 24.18
  A 1.21 1.20 -39.3 0 0 87.60 24.29
  Q 92.42 22.38 95.29 22.30
  Q 105.54 22.04 113.44 20.98
  C 118.14 20.34 122.03 20.73 124.03 24.97
  Q 125.44 27.94 125.12 31.79
  Q 124.31 41.74 124.37 52.72
  A 0.35 0.35 0.0 0 0 124.87 53.04
  Q 132.27 49.41 140.80 50.05
  A 0.80 0.78 -80.3 0 0 141.62 49.46
  Q 143.20 43.59 149.47 41.70
  Q 152.44 40.81 152.70 40.70
  Z
  M 149.20 51.28
  C 152.59 54.66 154.79 55.56 160.24 58.39
  C 166.76 61.78 173.48 63.23 180.51 64.02
  Q 187.75 64.84 191.33 71.93
  Q 193.60 76.42 198.33 88.65
  Q 200.23 93.56 203.05 96.70
  A 1.76 1.76 0.0 0 0 205.82 96.51
  Q 207.32 94.30 207.82 91.32
  Q 212.32 64.19 199.00 40.07
  C 192.33 27.98 181.58 19.47 168.01 17.24
  C 159.50 15.84 148.56 18.55 140.92 22.59
  A 3.06 2.87 -22.7 0 0 139.37 26.04
  Q 139.65 26.93 141.09 27.82
  Q 145.79 30.68 154.36 32.98
  C 161.30 34.84 166.50 36.62 171.63 39.40
  A 1.71 1.71 0.0 0 1 172.30 41.76
  Q 171.49 43.19 169.31 43.82
  Q 160.50 46.36 151.55 48.53
  Q 150.07 48.89 149.11 50.28
  A 0.78 0.77 -50.3 0 0 149.20 51.28
  Z
  M 117.23 121.16
  Q 117.27 120.60 117.01 89.14
  C 116.98 85.46 116.68 83.45 119.27 81.24
  Q 123.44 77.70 129.14 78.05
  C 135.62 78.44 135.56 84.28 135.46 89.24
  Q 134.94 114.28 134.92 121.09
  A 0.65 0.65 0.0 0 0 135.69 121.73
  C 143.47 120.39 152.10 116.53 158.85 114.66
  A 0.56 0.55 82.6 0 0 159.26 114.12
  Q 159.31 77.61 159.31 77.16
  C 159.38 70.62 158.40 65.79 153.76 62.26
  C 141.76 53.14 128.78 57.24 118.20 66.11
  A 1.03 1.02 70.9 0 1 116.52 65.29
  L 117.65 28.80
  A 0.89 0.89 0.0 0 0 116.67 27.89
  L 92.43 30.22
  A 1.46 1.46 0.0 0 0 91.15 32.02
  C 92.00 35.50 92.45 39.92 92.59 43.42
  Q 93.92 77.31 93.25 116.55
  A 0.84 0.83 6.6 0 0 93.92 117.39
  L 116.36 121.86
  A 0.73 0.72 6.0 0 0 117.23 121.16
  Z
  M 56.24 118.98
  C 60.44 118.04 64.74 116.39 69.02 115.56
  Q 74.33 114.53 79.45 114.62
  A 0.64 0.63 -0.4 0 0 80.10 113.97
  Q 78.92 71.80 81.74 30.62
  A 1.23 1.22 -88.0 0 0 80.52 29.31
  L 55.53 29.31
  A 1.20 1.19 85.8 0 0 54.35 30.68
  Q 56.04 41.98 56.16 55.00
  Q 56.47 89.76 55.75 118.58
  A 0.40 0.40 0.0 0 0 56.24 118.98
  Z
  M 15.50 53.44
  A 0.94 0.94 0.0 0 0 16.44 54.38
  L 42.13 54.38
  A 0.94 0.94 0.0 0 0 43.07 53.47
  L 43.77 30.59
  A 0.94 0.94 0.0 0 0 42.83 29.62
  L 16.44 29.62
  A 0.94 0.94 0.0 0 0 15.50 30.56
  L 15.50 53.44
  Z
  M 239.13 115.97
  C 237.94 95.98 237.07 80.60 240.41 62.85
  A 0.84 0.83 -78.1 0 0 239.78 61.88
  C 233.97 60.55 226.35 58.40 220.53 58.11
  A 1.60 1.59 8.7 0 0 218.91 59.29
  L 217.71 63.83
  A 0.83 0.83 0.0 0 1 216.22 64.08
  Q 214.76 61.94 212.29 60.38
  A 0.19 0.18 10.1 0 0 212.01 60.57
  Q 214.22 70.26 213.86 81.00
  A 3.38 3.37 -58.3 0 0 214.26 82.71
  C 218.03 89.94 216.32 100.97 207.01 103.07
  Q 197.10 105.31 191.76 96.44
  C 189.90 93.34 190.15 88.96 190.86 85.60
  A 3.77 3.75 43.4 0 0 190.81 83.91
  C 189.71 79.78 187.59 74.96 184.69 71.38
  C 182.69 68.92 177.68 68.67 174.99 68.35
  A 0.89 0.89 0.0 0 0 174.15 68.71
  C 165.76 80.30 165.25 98.83 172.91 110.95
  Q 174.09 112.83 175.55 114.24
  A 3.69 3.53 76.5 0 0 176.73 115.00
  Q 182.46 117.24 187.03 120.28
  C 192.49 123.93 195.79 124.73 201.89 124.12
  C 206.44 123.67 211.56 119.48 214.32 116.53
  A 0.64 0.63 -26.2 0 1 215.42 116.90
  L 215.64 119.20
  A 0.35 0.34 -12.9 0 0 216.11 119.49
  Q 227.28 115.23 238.63 116.45
  A 0.46 0.45 -88.4 0 0 239.13 115.97
  Z
  M 15.22 119.97
  Q 28.48 121.89 42.03 121.57
  A 0.93 0.92 88.8 0 0 42.93 120.62
  C 42.35 93.98 41.52 82.65 42.33 63.42
  A 0.69 0.68 -88.8 0 0 41.65 62.70
  L 16.48 62.70
  A 0.39 0.39 0.0 0 0 16.09 63.10
  Q 16.43 90.76 14.68 119.29
  A 0.64 0.64 0.0 0 0 15.22 119.97
  Z
  M 242.36 125.51
  C 241.06 121.11 233.76 119.92 229.98 120.55
  Q 225.94 121.22 225.60 121.33
  Q 212.68 125.58 207.49 127.23
  Q 194.05 131.49 182.71 124.16
  C 169.67 115.75 158.41 120.57 144.42 125.14
  C 133.94 128.56 123.34 128.37 112.22 126.52
  Q 98.45 124.23 87.50 121.51
  C 77.75 119.09 70.41 120.63 59.76 123.75
  C 45.56 127.89 30.25 126.96 15.20 125.22
  A 2.31 2.30 89.9 0 0 12.65 127.78
  C 14.17 140.49 38.46 135.86 45.68 133.88
  Q 57.60 130.60 69.62 127.63
  C 85.41 123.71 99.79 131.43 115.03 135.44
  Q 129.88 139.34 143.12 134.87
  Q 143.31 134.80 149.68 132.47
  Q 156.40 130.01 163.95 130.21
  C 169.72 130.36 174.00 132.10 180.90 134.53
  C 190.62 137.95 200.03 137.23 209.52 133.25
  Q 212.14 132.16 218.63 129.92
  Q 230.01 125.99 241.71 126.35
  A 0.66 0.65 82.9 0 0 242.36 125.51
  Z
  M 62.10 147.69
  C 62.09 151.43 62.74 154.73 64.34 157.97
  C 67.18 163.67 72.55 165.45 77.48 160.17
  A 3.46 3.45 55.5 0 0 78.15 156.54
  L 76.58 152.61
  A 0.52 0.52 0.0 0 0 75.63 152.58
  C 74.68 154.60 71.75 156.59 69.68 154.50
  C 67.81 152.62 67.46 150.35 67.47 147.72
  C 67.49 145.08 67.85 142.82 69.73 140.95
  C 71.83 138.88 74.74 140.89 75.67 142.92
  A 0.52 0.52 0.0 0 0 76.62 142.90
  L 78.23 138.98
  A 3.46 3.45 -55.1 0 0 77.59 135.35
  C 72.70 130.02 67.32 131.76 64.43 137.44
  C 62.80 140.66 62.12 143.96 62.10 147.69
  Z
  M 231.0200 135.4600
  A 13.83 10.50 -90.0 0 0 220.5200 149.2900
  A 13.83 10.50 -90.0 0 0 231.0200 163.1200
  A 13.83 10.50 -90.0 0 0 241.5200 149.2900
  A 13.83 10.50 -90.0 0 0 231.0200 135.4600
  Z
  M 92.08 162.31
  A 0.75 0.75 0.0 0 0 92.81 162.85
  L 97.20 162.85
  A 0.75 0.75 0.0 0 0 97.92 161.90
  L 90.97 137.41
  A 0.75 0.75 0.0 0 0 90.39 136.88
  L 86.43 136.09
  A 0.75 0.75 0.0 0 0 85.56 136.63
  L 78.83 161.93
  A 0.75 0.75 0.0 0 0 79.56 162.87
  L 83.44 162.87
  A 0.75 0.75 0.0 0 0 84.17 162.31
  L 84.96 159.34
  A 0.75 0.75 0.0 0 1 85.69 158.78
  L 90.51 158.78
  A 0.75 0.75 0.0 0 1 91.24 159.32
  L 92.08 162.31
  Z
  M 169.08 149.28
  L 169.58 154.46
  A 1.62 1.61 79.5 0 1 168.41 156.17
  Q 163.41 157.52 162.21 152.54
  C 161.56 149.85 161.69 144.78 164.81 143.35
  C 167.43 142.15 168.97 144.25 170.46 145.83
  A 0.56 0.55 -56.2 0 0 171.38 145.64
  L 172.96 141.44
  A 0.92 0.91 -50.4 0 0 172.89 140.64
  C 169.80 135.45 162.89 134.81 159.47 140.01
  C 155.54 145.97 155.31 155.61 160.72 160.99
  C 163.62 163.87 167.27 163.43 170.85 161.96
  A 1.57 1.54 39.4 0 1 171.76 161.88
  L 174.37 162.40
  A 0.27 0.27 0.0 0 0 174.69 162.14
  L 174.69 149.43
  A 0.64 0.63 85.1 0 0 173.95 148.80
  Q 171.53 149.23 169.67 148.77
  A 0.48 0.48 0.0 0 0 169.08 149.28
  Z
  M 44.3184 138.2609
  A 12.41 10.55 -90.7 0 0 33.9208 150.7989
  A 12.41 10.55 -90.7 0 0 44.6216 163.0791
  A 12.41 10.55 -90.7 0 0 55.0192 150.5411
  A 12.41 10.55 -90.7 0 0 44.3184 138.2609
  Z
  M 213.42 139.19
  Q 213.95 145.72 213.75 153.39
  C 213.65 156.99 213.94 159.21 211.30 162.08
  A 0.48 0.48 0.0 0 0 211.35 162.78
  Q 213.28 164.39 214.61 166.66
  A 0.33 0.33 0.0 0 0 215.16 166.69
  Q 218.95 161.72 218.99 155.99
  Q 219.08 143.78 219.25 139.19
  A 0.53 0.52 1.0 0 0 218.72 138.65
  L 213.92 138.65
  A 0.50 0.50 0.0 0 0 213.42 139.19
  Z
  M 115.34 161.53
  L 112.26 153.84
  A 0.80 0.80 0.0 0 1 112.55 152.88
  Q 114.76 151.35 115.16 148.50
  C 116.21 141.01 111.88 138.67 105.56 138.78
  Q 100.64 138.86 100.21 138.91
  A 0.75 0.74 86.5 0 0 99.56 139.65
  L 99.49 161.71
  A 1.15 1.15 0.0 0 0 100.64 162.87
  L 104.15 162.87
  A 0.95 0.95 0.0 0 0 105.10 161.83
  L 104.52 155.85
  A 1.42 1.41 27.5 0 1 107.16 155.02
  Q 108.79 157.89 109.33 161.64
  A 1.39 1.38 -4.1 0 0 110.70 162.82
  L 120.84 162.82
  A 0.66 0.65 5.2 0 0 121.49 162.29
  L 121.84 160.55
  A 0.79 0.79 0.0 0 1 122.61 159.92
  L 127.62 159.92
  A 0.85 0.83 -10.8 0 1 128.40 160.44
  L 129.10 162.19
  A 1.07 1.05 78.8 0 0 130.08 162.86
  L 134.16 162.86
  A 0.79 0.79 0.0 0 0 134.89 161.77
  L 127.91 144.35
  A 0.92 0.91 79.1 0 0 127.06 143.77
  L 123.41 143.77
  A 0.94 0.92 -79.3 0 0 122.55 144.37
  L 116.10 161.52
  A 0.41 0.41 0.0 0 1 115.34 161.53
  Z
  M 148.75 151.72
  Q 148.73 151.70 148.54 151.56
  A 0.29 0.24 -85.3 0 1 148.49 151.49
  L 142.32 140.50
  A 1.10 1.10 0.0 0 0 141.07 139.98
  L 136.82 141.19
  A 0.49 0.49 0.0 0 0 136.46 141.66
  L 136.46 162.18
  A 0.59 0.59 0.0 0 0 137.05 162.77
  L 140.99 162.77
  A 0.63 0.62 0.0 0 0 141.62 162.15
  L 141.62 150.92
  A 0.36 0.36 0.0 0 1 142.28 150.72
  Q 144.84 154.47 147.96 160.29
  Q 149.82 163.75 153.69 162.61
  A 0.75 0.75 0.0 0 0 154.23 161.89
  L 154.23 139.60
  A 0.42 0.42 0.0 0 0 153.81 139.18
  L 149.64 139.18
  A 0.63 0.63 0.0 0 0 149.01 139.85
  L 149.66 151.24
  A 0.57 0.56 -72.4 0 1 148.75 151.72
  Z
  M 16.81 141.70
  L 16.71 162.32
  A 0.59 0.59 0.0 0 0 17.29 162.91
  L 23.23 162.94
  A 9.74 8.93 -89.7 0 0 32.21 153.25
  L 32.23 150.93
  A 9.74 8.93 -89.7 0 0 23.35 141.14
  L 17.41 141.11
  A 0.59 0.59 0.0 0 0 16.81 141.70
  Z
  M 185.01 163.24
  C 189.93 163.26 192.99 162.04 192.96 156.51
  Q 192.92 150.00 193.34 142.39
  A 0.61 0.60 -88.2 0 0 192.75 141.75
  L 188.47 141.61
  A 0.69 0.68 90.0 0 0 187.77 142.32
  Q 187.89 147.07 187.86 155.87
  C 187.85 157.61 186.58 158.24 185.03 158.23
  C 183.49 158.22 182.22 157.58 182.23 155.85
  Q 182.27 147.05 182.44 142.30
  A 0.69 0.68 -89.5 0 0 181.74 141.58
  L 177.46 141.68
  A 0.61 0.60 88.7 0 0 176.87 142.32
  Q 177.22 149.93 177.12 156.44
  C 177.05 161.97 180.10 163.21 185.01 163.24
  Z
  M 209.09 145.98
  L 209.09 143.12
  A 1.07 1.06 -90.0 0 0 208.03 142.05
  L 196.45 142.05
  A 0.69 0.68 -2.3 0 0 195.76 142.79
  Q 196.49 152.57 195.65 162.13
  A 0.61 0.61 0.0 0 0 196.26 162.79
  L 208.65 162.79
  A 0.23 0.22 -83.6 0 0 208.87 162.61
  L 209.71 158.36
  A 0.44 0.43 5.9 0 0 209.28 157.84
  L 202.44 157.84
  A 1.26 1.26 0.0 0 1 201.18 156.58
  L 201.18 155.55
  A 1.14 1.14 0.0 0 1 202.35 154.41
  L 208.28 154.59
  A 0.38 0.37 -86.9 0 0 208.67 154.23
  L 208.79 150.03
  A 0.21 0.21 0.0 0 0 208.58 149.81
  L 202.57 149.81
  A 1.45 1.45 0.0 0 1 201.12 148.36
  L 201.12 147.78
  A 1.24 1.24 0.0 0 1 202.40 146.54
  L 208.32 146.73
  A 0.75 0.75 0.0 0 0 209.09 145.98
  Z"/>
<path fill="#f78836" d="
  M 149.11 50.28
  Q 150.07 48.89 151.55 48.53
  Q 160.50 46.36 169.31 43.82
  Q 171.49 43.19 172.30 41.76
  A 1.71 1.71 0.0 0 0 171.63 39.40
  C 166.50 36.62 161.30 34.84 154.36 32.98
  Q 145.79 30.68 141.09 27.82
  Q 139.65 26.93 139.37 26.04
  A 3.06 2.87 -22.7 0 1 140.92 22.59
  C 148.56 18.55 159.50 15.84 168.01 17.24
  C 181.58 19.47 192.33 27.98 199.00 40.07
  Q 212.32 64.19 207.82 91.32
  Q 207.32 94.30 205.82 96.51
  A 1.76 1.76 0.0 0 1 203.05 96.70
  Q 200.23 93.56 198.33 88.65
  Q 193.60 76.42 191.33 71.93
  Q 187.75 64.84 180.51 64.02
  C 173.48 63.23 166.76 61.78 160.24 58.39
  C 154.79 55.56 152.59 54.66 149.20 51.28
  A 0.78 0.77 -50.3 0 1 149.11 50.28
  Z
  M 198.69 47.13
  L 199.18 52.22
  A 0.93 0.92 76.9 0 1 198.60 53.16
  L 197.55 53.59
  A 0.83 0.83 0.0 0 1 196.42 52.85
  Q 196.23 46.76 194.86 39.40
  C 193.65 32.92 185.64 26.44 180.28 23.69
  Q 165.36 16.06 149.69 22.91
  A 0.54 0.54 0.0 0 0 149.77 23.93
  Q 157.47 25.97 163.31 27.45
  C 168.52 28.78 175.37 31.82 178.50 35.57
  A 2.12 2.10 31.3 0 1 178.94 37.33
  L 177.96 42.25
  A 1.25 1.21 -15.7 0 1 177.56 42.94
  C 173.30 46.61 166.06 47.79 161.40 49.72
  A 0.40 0.40 0.0 0 0 161.37 50.44
  Q 170.48 55.08 179.10 56.02
  C 187.42 56.92 193.25 59.83 197.08 67.19
  Q 201.05 74.81 203.65 82.71
  A 0.75 0.75 0.0 0 0 205.12 82.53
  Q 206.32 66.00 201.02 50.22
  Q 200.45 48.52 199.52 46.87
  A 0.44 0.44 0.0 0 0 198.69 47.13
  Z"/>
<path fill="#f06c33" d="
  M 198.69 47.13
  A 0.44 0.44 0.0 0 1 199.52 46.87
  Q 200.45 48.52 201.02 50.22
  Q 206.32 66.00 205.12 82.53
  A 0.75 0.75 0.0 0 1 203.65 82.71
  Q 201.05 74.81 197.08 67.19
  C 193.25 59.83 187.42 56.92 179.10 56.02
  Q 170.48 55.08 161.37 50.44
  A 0.40 0.40 0.0 0 1 161.40 49.72
  C 166.06 47.79 173.30 46.61 177.56 42.94
  A 1.25 1.21 -15.7 0 0 177.96 42.25
  L 178.94 37.33
  A 2.12 2.10 31.3 0 0 178.50 35.57
  C 175.37 31.82 168.52 28.78 163.31 27.45
  Q 157.47 25.97 149.77 23.93
  A 0.54 0.54 0.0 0 1 149.69 22.91
  Q 165.36 16.06 180.28 23.69
  C 185.64 26.44 193.65 32.92 194.86 39.40
  Q 196.23 46.76 196.42 52.85
  A 0.83 0.83 0.0 0 0 197.55 53.59
  L 198.60 53.16
  A 0.93 0.92 76.9 0 0 199.18 52.22
  L 198.69 47.13
  Z"/>
<path fill="#fdbc39" d="
  M 242.36 125.51
  A 0.66 0.65 82.9 0 1 241.71 126.35
  Q 230.01 125.99 218.63 129.92
  Q 212.14 132.16 209.52 133.25
  C 200.03 137.23 190.62 137.95 180.90 134.53
  C 174.00 132.10 169.72 130.36 163.95 130.21
  Q 156.40 130.01 149.68 132.47
  Q 143.31 134.80 143.12 134.87
  Q 129.88 139.34 115.03 135.44
  C 99.79 131.43 85.41 123.71 69.62 127.63
  Q 57.60 130.60 45.68 133.88
  C 38.46 135.86 14.17 140.49 12.65 127.78
  A 2.31 2.30 89.9 0 1 15.20 125.22
  C 30.25 126.96 45.56 127.89 59.76 123.75
  C 70.41 120.63 77.75 119.09 87.50 121.51
  Q 98.45 124.23 112.22 126.52
  C 123.34 128.37 133.94 128.56 144.42 125.14
  C 158.41 120.57 169.67 115.75 182.71 124.16
  Q 194.05 131.49 207.49 127.23
  Q 212.68 125.58 225.60 121.33
  Q 225.94 121.22 229.98 120.55
  C 233.76 119.92 241.06 121.11 242.36 125.51
  Z"/>
<path fill="#ffffff" d="M 116.36 121.86 L 93.92 117.39 A 0.84 0.83 6.6 0 1 93.25 116.55 Q 93.92 77.31 92.59 43.42 C 92.45 39.92 92.00 35.50 91.15 32.02 A 1.46 1.46 0.0 0 1 92.43 30.22 L 116.67 27.89 A 0.89 0.89 0.0 0 1 117.65 28.80 L 116.52 65.29 A 1.03 1.02 70.9 0 0 118.20 66.11 C 128.78 57.24 141.76 53.14 153.76 62.26 C 158.40 65.79 159.38 70.62 159.31 77.16 Q 159.31 77.61 159.26 114.12 A 0.56 0.55 82.6 0 1 158.85 114.66 C 152.10 116.53 143.47 120.39 135.69 121.73 A 0.65 0.65 0.0 0 1 134.92 121.09 Q 134.94 114.28 135.46 89.24 C 135.56 84.28 135.62 78.44 129.14 78.05 Q 123.44 77.70 119.27 81.24 C 116.68 83.45 116.98 85.46 117.01 89.14 Q 117.27 120.60 117.23 121.16 A 0.73 0.72 6.0 0 1 116.36 121.86 Z"/>
<path fill="#ffffff" d="M 56.24 118.98 A 0.40 0.40 0.0 0 1 55.75 118.58 Q 56.47 89.76 56.16 55.00 Q 56.04 41.98 54.35 30.68 A 1.20 1.19 85.8 0 1 55.53 29.31 L 80.52 29.31 A 1.23 1.22 -88.0 0 1 81.74 30.62 Q 78.92 71.80 80.10 113.97 A 0.64 0.63 -0.4 0 1 79.45 114.62 Q 74.33 114.53 69.02 115.56 C 64.74 116.39 60.44 118.04 56.24 118.98 Z"/>
<path fill="#ffffff" d="M 15.50 53.44 L 15.50 30.56 A 0.94 0.94 0.0 0 1 16.44 29.62 L 42.83 29.62 A 0.94 0.94 0.0 0 1 43.77 30.59 L 43.07 53.47 A 0.94 0.94 0.0 0 1 42.13 54.38 L 16.44 54.38 A 0.94 0.94 0.0 0 1 15.50 53.44 Z"/>
<path fill="#ffffff" d="M 238.63 116.45 Q 227.28 115.23 216.11 119.49 A 0.35 0.34 -12.9 0 1 215.64 119.20 L 215.42 116.90 A 0.64 0.63 -26.2 0 0 214.32 116.53 C 211.56 119.48 206.44 123.67 201.89 124.12 C 195.79 124.73 192.49 123.93 187.03 120.28 Q 182.46 117.24 176.73 115.00 A 3.69 3.53 76.5 0 1 175.55 114.24 Q 174.09 112.83 172.91 110.95 C 165.25 98.83 165.76 80.30 174.15 68.71 A 0.89 0.89 0.0 0 1 174.99 68.35 C 177.68 68.67 182.69 68.92 184.69 71.38 C 187.59 74.96 189.71 79.78 190.81 83.91 A 3.77 3.75 43.4 0 1 190.86 85.60 C 190.15 88.96 189.90 93.34 191.76 96.44 Q 197.10 105.31 207.01 103.07 C 216.32 100.97 218.03 89.94 214.26 82.71 A 3.38 3.37 -58.3 0 1 213.86 81.00 Q 214.22 70.26 212.01 60.57 A 0.19 0.18 10.1 0 1 212.29 60.38 Q 214.76 61.94 216.22 64.08 A 0.83 0.83 0.0 0 0 217.71 63.83 L 218.91 59.29 A 1.60 1.59 8.7 0 1 220.53 58.11 C 226.35 58.40 233.97 60.55 239.78 61.88 A 0.84 0.83 -78.1 0 1 240.41 62.85 C 237.07 80.60 237.94 95.98 239.13 115.97 A 0.46 0.45 -88.4 0 1 238.63 116.45 Z"/>
<path fill="#ffffff" d="M 15.22 119.97 A 0.64 0.64 0.0 0 1 14.68 119.29 Q 16.43 90.76 16.09 63.10 A 0.39 0.39 0.0 0 1 16.48 62.70 L 41.65 62.70 A 0.69 0.68 -88.8 0 1 42.33 63.42 C 41.52 82.65 42.35 93.98 42.93 120.62 A 0.93 0.92 88.8 0 1 42.03 121.57 Q 28.48 121.89 15.22 119.97 Z"/>
<path fill="#ffffff" d="M 67.47 147.72 C 67.46 150.35 67.81 152.62 69.68 154.50 C 71.75 156.59 74.68 154.60 75.63 152.58 A 0.52 0.52 0.0 0 1 76.58 152.61 L 78.15 156.54 A 3.46 3.45 55.5 0 1 77.48 160.17 C 72.55 165.45 67.18 163.67 64.34 157.97 C 62.74 154.73 62.09 151.43 62.10 147.69 C 62.12 143.96 62.80 140.66 64.43 137.44 C 67.32 131.76 72.70 130.02 77.59 135.35 A 3.46 3.45 -55.1 0 1 78.23 138.98 L 76.62 142.90 A 0.52 0.52 0.0 0 1 75.67 142.92 C 74.74 140.89 71.83 138.88 69.73 140.95 C 67.85 142.82 67.49 145.08 67.47 147.72 Z"/>
<path fill="#ffffff" d="M 231.0200 135.4600 A 13.83 10.50 -90.0 0 1 241.5200 149.2900 A 13.83 10.50 -90.0 0 1 231.0200 163.1200 A 13.83 10.50 -90.0 0 1 220.5200 149.2900 A 13.83 10.50 -90.0 0 1 231.0200 135.4600 Z M 231.1439 142.3715 A 6.87 4.79 -88.8 0 0 226.2111 149.1397 A 6.87 4.79 -88.8 0 0 230.8561 156.1085 A 6.87 4.79 -88.8 0 0 235.7889 149.3403 A 6.87 4.79 -88.8 0 0 231.1439 142.3715 Z"/>
<path fill="#ffffff" d="M 92.08 162.31 L 91.24 159.32 A 0.75 0.75 0.0 0 0 90.51 158.78 L 85.69 158.78 A 0.75 0.75 0.0 0 0 84.96 159.34 L 84.17 162.31 A 0.75 0.75 0.0 0 1 83.44 162.87 L 79.56 162.87 A 0.75 0.75 0.0 0 1 78.83 161.93 L 85.56 136.63 A 0.75 0.75 0.0 0 1 86.43 136.09 L 90.39 136.88 A 0.75 0.75 0.0 0 1 90.97 137.41 L 97.92 161.90 A 0.75 0.75 0.0 0 1 97.20 162.85 L 92.81 162.85 A 0.75 0.75 0.0 0 1 92.08 162.31 Z M 88.53 146.42 A 0.37 0.37 0.0 0 0 87.80 146.49 Q 87.53 149.67 86.57 151.59 A 0.63 0.63 0.0 0 0 87.03 152.50 Q 89.75 152.95 90.05 151.97 A 0.34 0.28 49.7 0 0 90.05 151.78 L 88.53 146.42 Z"/>
<path fill="#ffffff" d="M 169.08 149.28 A 0.48 0.48 0.0 0 1 169.67 148.77 Q 171.53 149.23 173.95 148.80 A 0.64 0.63 85.1 0 1 174.69 149.43 L 174.69 162.14 A 0.27 0.27 0.0 0 1 174.37 162.40 L 171.76 161.88 A 1.57 1.54 39.4 0 0 170.85 161.96 C 167.27 163.43 163.62 163.87 160.72 160.99 C 155.31 155.61 155.54 145.97 159.47 140.01 C 162.89 134.81 169.80 135.45 172.89 140.64 A 0.92 0.91 -50.4 0 1 172.96 141.44 L 171.38 145.64 A 0.56 0.55 -56.2 0 1 170.46 145.83 C 168.97 144.25 167.43 142.15 164.81 143.35 C 161.69 144.78 161.56 149.85 162.21 152.54 Q 163.41 157.52 168.41 156.17 A 1.62 1.61 79.5 0 0 169.58 154.46 L 169.08 149.28 Z"/>
<path fill="#ffffff" d="M 44.3184 138.2609 A 12.41 10.55 -90.7 0 1 55.0192 150.5411 A 12.41 10.55 -90.7 0 1 44.6216 163.0791 A 12.41 10.55 -90.7 0 1 33.9208 150.7989 A 12.41 10.55 -90.7 0 1 44.3184 138.2609 Z M 44.6199 144.5621 A 6.11 4.84 -88.5 0 0 39.6217 150.5433 A 6.11 4.84 -88.5 0 0 44.3001 156.7779 A 6.11 4.84 -88.5 0 0 49.2983 150.7967 A 6.11 4.84 -88.5 0 0 44.6199 144.5621 Z"/>
<path fill="#ffffff" d="M 213.42 139.19 A 0.50 0.50 0.0 0 1 213.92 138.65 L 218.72 138.65 A 0.53 0.52 1.0 0 1 219.25 139.19 Q 219.08 143.78 218.99 155.99 Q 218.95 161.72 215.16 166.69 A 0.33 0.33 0.0 0 1 214.61 166.66 Q 213.28 164.39 211.35 162.78 A 0.48 0.48 0.0 0 1 211.30 162.08 C 213.94 159.21 213.65 156.99 213.75 153.39 Q 213.95 145.72 213.42 139.19 Z"/>
<path fill="#ffffff" d="M 116.10 161.52 L 122.55 144.37 A 0.94 0.92 -79.3 0 1 123.41 143.77 L 127.06 143.77 A 0.92 0.91 79.1 0 1 127.91 144.35 L 134.89 161.77 A 0.79 0.79 0.0 0 1 134.16 162.86 L 130.08 162.86 A 1.07 1.05 78.8 0 1 129.10 162.19 L 128.40 160.44 A 0.85 0.83 -10.8 0 0 127.62 159.92 L 122.61 159.92 A 0.79 0.79 0.0 0 0 121.84 160.55 L 121.49 162.29 A 0.66 0.65 5.2 0 1 120.84 162.82 L 110.70 162.82 A 1.39 1.38 -4.1 0 1 109.33 161.64 Q 108.79 157.89 107.16 155.02 A 1.42 1.41 27.5 0 0 104.52 155.85 L 105.10 161.83 A 0.95 0.95 0.0 0 1 104.15 162.87 L 100.64 162.87 A 1.15 1.15 0.0 0 1 99.49 161.71 L 99.56 139.65 A 0.75 0.74 86.5 0 1 100.21 138.91 Q 100.64 138.86 105.56 138.78 C 111.88 138.67 116.21 141.01 115.16 148.50 Q 114.76 151.35 112.55 152.88 A 0.80 0.80 0.0 0 0 112.26 153.84 L 115.34 161.53 A 0.41 0.41 0.0 0 0 116.10 161.52 Z M 104.53 144.91 L 104.51 149.15 A 1.18 1.18 0.0 0 0 105.68 150.34 L 106.99 150.35 A 2.99 2.75 -89.6 0 0 109.76 147.38 L 109.76 146.76 A 2.99 2.75 -89.6 0 0 107.03 143.75 L 105.72 143.74 A 1.18 1.18 0.0 0 0 104.53 144.91 Z M 124.91 151.25 L 123.57 154.81 A 0.52 0.52 0.0 0 0 123.98 155.50 Q 125.45 155.69 126.51 155.42 A 0.70 0.70 0.0 0 0 126.98 154.49 L 125.68 151.25 A 0.42 0.41 44.6 0 0 124.91 151.25 Z"/>
<path fill="#ffffff" d="M 148.75 151.72 A 0.57 0.56 -72.4 0 0 149.66 151.24 L 149.01 139.85 A 0.63 0.63 0.0 0 1 149.64 139.18 L 153.81 139.18 A 0.42 0.42 0.0 0 1 154.23 139.60 L 154.23 161.89 A 0.75 0.75 0.0 0 1 153.69 162.61 Q 149.82 163.75 147.96 160.29 Q 144.84 154.47 142.28 150.72 A 0.36 0.36 0.0 0 0 141.62 150.92 L 141.62 162.15 A 0.63 0.62 -0.0 0 1 140.99 162.77 L 137.05 162.77 A 0.59 0.59 0.0 0 1 136.46 162.18 L 136.46 141.66 A 0.49 0.49 0.0 0 1 136.82 141.19 L 141.07 139.98 A 1.10 1.10 0.0 0 1 142.32 140.50 L 148.49 151.49 A 0.29 0.24 -85.3 0 0 148.54 151.56 Q 148.73 151.70 148.75 151.72 Z"/>
<path fill="#ffffff" d="M 16.81 141.70 A 0.59 0.59 0.0 0 1 17.41 141.11 L 23.35 141.14 A 9.74 8.93 -89.7 0 1 32.23 150.93 L 32.21 153.25 A 9.74 8.93 -89.7 0 1 23.23 162.94 L 17.29 162.91 A 0.59 0.59 0.0 0 1 16.71 162.32 L 16.81 141.70 Z M 21.55 146.95 L 21.49 157.03 A 0.94 0.94 0.0 0 0 22.43 157.98 L 23.22 157.98 A 5.10 4.55 -89.7 0 0 27.80 152.91 L 27.80 151.15 A 5.10 4.55 -89.7 0 0 23.28 146.02 L 22.49 146.02 A 0.94 0.94 0.0 0 0 21.55 146.95 Z"/>
<path fill="#ffffff" d="M 185.03 158.23 C 186.58 158.24 187.85 157.61 187.86 155.87 Q 187.89 147.07 187.77 142.32 A 0.69 0.68 90.0 0 1 188.47 141.61 L 192.75 141.75 A 0.61 0.60 -88.2 0 1 193.34 142.39 Q 192.92 150.00 192.96 156.51 C 192.99 162.04 189.93 163.26 185.01 163.24 C 180.10 163.21 177.05 161.97 177.12 156.44 Q 177.22 149.93 176.87 142.32 A 0.61 0.60 88.7 0 1 177.46 141.68 L 181.74 141.58 A 0.69 0.68 -89.5 0 1 182.44 142.30 Q 182.27 147.05 182.23 155.85 C 182.22 157.58 183.49 158.22 185.03 158.23 Z"/>
<path fill="#ffffff" d="M 209.09 145.98 A 0.75 0.75 0.0 0 1 208.32 146.73 L 202.40 146.54 A 1.24 1.24 0.0 0 0 201.12 147.78 L 201.12 148.36 A 1.45 1.45 0.0 0 0 202.57 149.81 L 208.58 149.81 A 0.21 0.21 0.0 0 1 208.79 150.03 L 208.67 154.23 A 0.38 0.37 -86.9 0 1 208.28 154.59 L 202.35 154.41 A 1.14 1.14 0.0 0 0 201.18 155.55 L 201.18 156.58 A 1.26 1.26 0.0 0 0 202.44 157.84 L 209.28 157.84 A 0.44 0.43 5.9 0 1 209.71 158.36 L 208.87 162.61 A 0.23 0.22 -83.6 0 1 208.65 162.79 L 196.26 162.79 A 0.61 0.61 0.0 0 1 195.65 162.13 Q 196.49 152.57 195.76 142.79 A 0.69 0.68 -2.3 0 1 196.45 142.05 L 208.03 142.05 A 1.07 1.06 -90.0 0 1 209.09 143.12 L 209.09 145.98 Z"/>
<ellipse fill="#972e2f" cx="0.00" cy="0.00" transform="translate(231.00,149.24) rotate(-88.8)" rx="6.87" ry="4.79"/>
<path fill="#972e2f" d="M 104.53 144.91 A 1.18 1.18 0.0 0 1 105.72 143.74 L 107.03 143.75 A 2.99 2.75 -89.6 0 1 109.76 146.76 L 109.76 147.38 A 2.99 2.75 -89.6 0 1 106.99 150.35 L 105.68 150.34 A 1.18 1.18 0.0 0 1 104.51 149.15 L 104.53 144.91 Z"/>
<ellipse fill="#972e2f" cx="0.00" cy="0.00" transform="translate(44.46,150.67) rotate(-88.5)" rx="6.11" ry="4.84"/>
<path fill="#972e2f" d="M 21.55 146.95 A 0.94 0.94 0.0 0 1 22.49 146.02 L 23.28 146.02 A 5.10 4.55 -89.7 0 1 27.80 151.15 L 27.80 152.91 A 5.10 4.55 -89.7 0 1 23.22 157.98 L 22.43 157.98 A 0.94 0.94 0.0 0 1 21.49 157.03 L 21.55 146.95 Z"/>
<path fill="#972e2f" d="M 88.53 146.42 L 90.05 151.78 A 0.34 0.28 49.7 0 1 90.05 151.97 Q 89.75 152.95 87.03 152.50 A 0.63 0.63 0.0 0 1 86.57 151.59 Q 87.53 149.67 87.80 146.49 A 0.37 0.37 0.0 0 1 88.53 146.42 Z"/>
<path fill="#972e2f" d="M 125.68 151.25 L 126.98 154.49 A 0.70 0.70 0.0 0 1 126.51 155.42 Q 125.45 155.69 123.98 155.50 A 0.52 0.52 0.0 0 1 123.57 154.81 L 124.91 151.25 A 0.42 0.41 44.6 0 1 125.68 151.25 Z"/>
</svg>
