<?xml version="1.0" encoding="UTF-8"?>
<!DOCTYPE svg PUBLIC "-//W3C//DTD SVG 1.1//EN" "http://www.w3.org/Graphics/SVG/1.1/DTD/svg11.dtd">
<!-- Creator: CorelDRAW -->
<svg xmlns="http://www.w3.org/2000/svg" xml:space="preserve" width="774px" height="474px" version="1.1" style="shape-rendering:geometricPrecision; text-rendering:geometricPrecision; image-rendering:optimizeQuality; fill-rule:evenodd; clip-rule:evenodd"
viewBox="0 0 774 474.02"
 xmlns:xlink="http://www.w3.org/1999/xlink"
 xmlns:xodm="http://www.corel.com/coreldraw/odm/2003">
 <defs>
  <style type="text/css">
   <![CDATA[
    .fil1 {fill:#991918}
    .fil4 {fill:#E85C0D}
    .fil3 {fill:#ED7F09}
    .fil0 {fill:#F9B812}
    .fil2 {fill:white}
   ]]>
  </style>
 </defs>
 <g id="Camada_x0020_1">
  <metadata id="CorelCorpID_0Corel-Layer"/>
  <g id="_2173608662448">
   <path class="fil0" d="M261.04 44.48c1.17,-0.51 2.43,-0.92 3.68,-1.34l0.5 -0.17c9.03,-2.71 18.74,-3.54 28.1,-3.87 5.11,-0.17 10.29,-0.17 15.39,-0.67l0.17 0 0.83 -0.08c12.55,-1.42 25.09,-2.92 37.55,-4.34l2.18 -0.25 2.17 0c14.72,0 26.93,7.55 33.79,18.88 6.1,-27.5 39.89,-39.8 64.81,-46.47 39.39,-10.55 79.62,-7.79 115.91,11.38 44.83,23.67 74.27,66.31 90.74,113.29 4.77,-2 9.95,-3.09 15.39,-3.09 12.04,0 24.76,2.67 36.63,5.05 11.37,2.25 22.92,4.58 33.87,8.25l0.75 0.25 0.67 0.25c15.81,6.04 26.68,20.34 26.68,37.47 0,3.42 -0.08,6.63 -1,9.88 0,0.33 -0.17,0.58 -0.26,0.91 -4.26,24.18 -6.1,48.77 -6.1,73.36 0,64.57 10.37,71.57 10.37,132.05 0,18.79 -5.02,36.8 -16.31,51.93 -12.8,16.97 -31.19,26.93 -52.6,26.93 -209.24,0 -452.52,-1.25 -656.58,-1.25 -2.25,0 -4.6,0 -6.86,-0.17 -1.33,0 -2.59,-0.08 -3.93,-0.08 -20.9,0 -37.55,-16.76 -37.55,-37.56 0,-5.62 0.17,-11.21 0.34,-16.8 0.17,-4.87 0.33,-9.79 0.33,-14.67 0,-5.08 -0.16,-10.17 -0.33,-15.38 -2.17,-78.44 3.59,-84.61 3.59,-174.76 0,-11.22 -0.25,-22.51 -0.5,-33.72l-0.33 -12.38 -0.59 -19.55c-0.75,-22.67 -1.5,-45.43 -1.5,-68.15 0,-22.76 18.06,-41.1 41.23,-41.1 7.02,0 13.97,0.34 20.99,0.59l0.25 0c5.85,0.33 11.79,0.58 17.73,0.58 5.94,0 11.46,-0.33 17.23,-0.58l0.25 0c6.85,-0.34 13.71,-0.59 20.57,-0.59 7.78,0 15.47,1.96 22.16,5.71 6.69,-4.04 14.47,-6.12 22.5,-6.12l74.43 0c8.11,0 15.97,2.16 22.66,6.29l0 0.09z"/>
   <path class="fil1" d="M15.76 213.49c0,-11.38 -0.25,-22.67 -0.5,-34.05l-0.34 -12.47 -0.59 -19.63c-0.75,-22.51 -1.5,-45.18 -1.5,-67.65 0,-15.75 11.96,-27.38 27.6,-27.38 6.77,0 13.63,0.33 20.4,0.58l0.17 0c6.11,0.34 12.3,0.63 18.4,0.63 6.1,0 11.96,-0.38 17.9,-0.63l0.16 0c6.69,-0.25 13.38,-0.58 19.99,-0.58 9.03,0 17.15,3.54 22.41,9.55 5.11,-6.26 13.13,-9.97 22.25,-9.97l74.43 0c8.7,0 16.22,3.46 21.24,9.13 2.68,-2.08 5.69,-3.75 9.12,-4.75l0.33 0c7.78,-2.42 16.56,-3.13 24.67,-3.38 5.35,-0.16 11.46,-0.16 16.73,-0.75l0.17 0 0.5 -0.08c12.54,-1.42 25.09,-2.92 37.63,-4.42l1.34 -0.16 1.34 0c15.38,0 26.18,12.21 26.18,27.17 0,6.54 -0.43,13.13 -0.84,19.59 -0.34,5.42 -0.84,11.17 -0.84,16.63l0 0.59c-0.33,12.62 -0.67,25.17 -0.92,37.8 1.09,-0.5 2.09,-1 3.18,-1.5l0.25 0c12.96,-5.88 26.85,-9.3 41.06,-9.3 3.26,0 6.44,0.17 9.62,0.42 1.42,-20.42 21.15,-25.26 37.3,-29.51 -3.02,-0.92 -6.02,-1.75 -9.03,-2.67 -21.08,-6.46 -57.88,-16.34 -59.47,-43.18 -1.67,-27.59 35.63,-38.89 55.54,-44.22 36.04,-9.63 72.75,-7.29 105.95,10.29 43.49,22.97 71.93,66.07 86.89,113.79l8.03 5.21c4.35,-4.33 10.12,-7.21 17.65,-7.21 10.54,0 23.5,2.67 33.87,4.8 10.53,2.16 22.08,4.41 32.28,7.83l0.42 0.17 0.42 0.17c10.53,4.04 17.81,13.21 17.81,24.67 0,6.13 -0.5,5.71 -1.01,8.38 -4.34,25.01 -6.35,50.43 -6.35,75.77 0,15.38 0.92,31.01 1.84,46.39 3.17,55.1 8.53,35.14 8.53,85.66 0,15.79 -4.02,30.92 -13.63,43.72 -10.21,13.55 -24.59,21.51 -41.65,21.51 -205.81,0 -464.14,-1.25 -656.57,-1.25 -2.1,0 -4.19,0 -6.36,-0.17 -1.51,0 -3.01,-0.17 -4.43,-0.17 -13.3,0 -23.84,-10.63 -23.84,-23.92 0,-5.46 0.17,-10.96 0.33,-16.38 0.17,-5.04 0.34,-10.05 0.34,-15.09 0,-5 -0.17,-10.42 -0.34,-15.71 -2.08,-75.28 3.6,-90.16 3.6,-174.44l0.34 0.17z"/>
   <path class="fil2" d="M120.71 213.49c0,16.38 0.42,41.06 1.26,73.94 0.75,32.93 1.25,57.6 1.25,73.98 -28.6,2 -58.62,-1 -85.8,-4.25 -0.76,-0.08 -1.51,-0.16 -2.26,-0.25 0.33,-5.54 0.84,-16.38 1.59,-32.55 2.51,-56.27 3.76,-93.24 3.76,-110.87 0,-8.88 -0.17,-20.42 -0.5,-34.55l81.62 0c-0.58,14.13 -0.83,25.67 -0.83,34.55l-0.09 0zm-81.45 -60.73l-0.17 -6.17c-1,-29.72 -1.51,-52.02 -1.51,-66.9 0,-3.12 1.68,-4.54 4.77,-4.54 4.35,0 10.79,0.25 19.49,0.59 8.69,0.41 15.22,0.66 19.48,0.66 4.27,0 10.71,-0.25 19.07,-0.66 8.45,-0.34 14.8,-0.59 19.07,-0.59 4.26,0 6.02,1.5 6.02,4.54 0,14.88 -0.76,37.18 -2.34,66.9 -0.09,2.09 -0.25,4.17 -0.34,6.17l-83.54 0 0 0zm198.28 89.24c0,37.97 0.17,67.06 0.42,87.32 0,2.42 0.17,6.17 0.34,11.3 -24.34,-1.5 -47.09,4.58 -70,12.38 -1.68,0.58 -3.35,1.08 -5.1,1.58l0 -1.75c0,-12.38 0,-30.89 0.33,-55.56 0.25,-24.68 0.42,-43.06 0.42,-55.35 0,-58.27 0,-84.91 0.25,-79.78 -0.42,-30.68 -2.18,-57.14 -5.18,-79.36 -0.26,-1.5 -0.43,-2.67 -0.43,-3.63 0,-3.08 1.76,-4.5 5.44,-4.5l74.43 0c3.51,0 5.02,1.42 4.86,4.34l-0.26 3.79c-3.6,60.02 -5.52,113.04 -5.52,159.14l0 0.08zm246.12 -25.59l-0.33 124.04c-12.13,2.58 -24.42,6.67 -37.22,11.8 -12.71,5.08 -25.09,8.33 -37.29,10.16 -0.42,-1.16 -0.59,-2.5 -0.59,-4 0,-11.96 0.25,-29.92 0.67,-54.01 0.42,-24.01 0.67,-42.06 0.67,-53.94 0,-16.25 -8.28,-24.34 -24.84,-24.34 -5.52,0 -12.13,2.17 -19.57,6.58 -8.19,4.96 -12.29,9.97 -12.29,15.22l0 51.52c0,6.71 0.17,16.75 0.42,30.13 0.25,13.46 0.41,23.51 0.41,30.18 0,1.08 -0.08,2 -0.25,2.83 -15.39,-1.83 -31.02,-5 -47.41,-8.59 -9.04,-2.04 -18.07,-4.2 -27.1,-6.29 0,-9.88 0.08,-22.26 0.17,-37.05 0.16,-22.05 0.25,-38.56 0.25,-49.48 0,-45.43 -0.5,-82.98 -1.51,-112.74 -0.42,-10.47 -0.75,-20.84 -1,-31.31 -0.75,-12.04 -2.01,-22.38 -3.77,-31.01 -0.41,-1.75 -0.66,-3.08 -0.66,-4 0,-2.08 1.08,-3.54 3.09,-4.12 4.35,-1.25 10.7,-2.09 18.98,-2.34 11.13,-0.33 17.57,-0.66 19.32,-1 25.18,-2.92 37.72,-4.42 37.72,-4.42 2.26,0 3.35,1.5 3.35,4.42 0,4.42 -0.26,10.46 -0.76,18.17 -0.58,8.84 -0.83,14.97 -0.83,18.14 -0.84,31.34 -1.26,56.18 -1.26,74.35 0,2.84 0.75,4.17 2.18,4.17 0.25,0 3.76,-2.42 10.62,-7.38 8.03,-5.66 15.8,-10.17 23.08,-13.54 10.95,-4.84 21.66,-7.25 31.86,-7.25 17.81,0 32.62,4.58 44.58,13.96 12.96,9.96 19.4,23.67 19.4,41.05l-0.09 0.09zm243.37 46.85c0,10.67 0.66,26.59 1.92,47.72 0.84,14.05 1.34,25.76 1.67,35.14 -21.82,-3.34 -41.9,-0.42 -63.3,6.71 -2.76,0.92 -5.61,1.92 -8.37,3 -0.92,-6.96 -1.92,-10.55 -3.09,-10.63 -1.09,0.5 -2.6,1.67 -4.35,3.5 -9.54,9.63 -19.57,16.3 -29.94,20.09 -1.67,0.34 -3.26,0.67 -4.85,1 -18.74,3.17 -33.79,-2 -49.43,-12.96 -10.87,-7.71 -21.66,-12.71 -32.44,-15.71l-0.76 -0.84c-16.81,-20 -25.17,-43.93 -25.17,-71.69 0,-29.26 7.2,-53.35 21.66,-72.19l0.42 0c6.94,1.21 18.65,1.88 25,4.46 10.54,4.34 18.57,25.76 22.17,35.22 1.5,3.92 3.01,7.84 4.51,11.84 -1.92,5.04 -2.93,10.63 -2.93,16.75 0,11.22 3.94,20.89 11.71,28.93 7.78,8.04 17.23,12.13 28.35,12.13 11.8,0 21.41,-3.84 28.94,-11.63 7.44,-7.71 11.2,-17.46 11.2,-29.43 0,-9.71 -2.5,-18.09 -7.61,-25.01 0.17,-3 0.25,-6.04 0.25,-9.04 0.18,-19.3 -1.75,-39.64 -6.01,-59.69 5.26,3.42 9.94,7.59 14.21,12.72 0.59,0.66 1,1.08 1.42,1.08 1.26,0 2.68,-3.46 4.27,-10.13 1.67,-6.79 3.6,-10.13 5.77,-10.13 5.1,0 14.97,1.42 29.35,4.34 13.72,2.79 23.59,5.12 29.61,7.13 2.09,0.75 3.1,1.91 3.1,3.33 0,0.5 -0.26,2 -0.68,4.38 -4.43,25.13 -6.69,51.72 -6.69,79.77l0.09 -0.16z"/>
   <path class="fil3" d="M593.05 230.29c-26.93,-70.32 -39.22,-31.93 -105.37,-64.48 -61.14,-30.01 -27.68,-30.68 -13.05,-34.81 38.3,-10.67 88.06,-16.71 4.43,-41.63 -40.14,-11.97 -97.26,-27.1 -19.4,-47.9 118.59,-31.72 188.09,97.08 175.71,213.08 -8.03,74.6 -34.29,-3.42 -42.23,-24.26l-0.09 0z"/>
   <path class="fil4" d="M623.91 246.42c0,0 0,-0.67 0.08,-1 0.84,-7.51 1.26,-15.05 1.34,-22.64 0.34,-28.8 -5.01,-61.56 -16.89,-91.07 -1.42,1 -2.93,1.59 -4.6,1.59 -5.94,0 -10.79,-7.55 -10.79,-16.84 0,-4.09 0.92,-7.84 2.51,-10.76 -12.29,-20.67 -28.6,-38.05 -49.42,-49.1 -24.59,-12.96 -51.27,-14.21 -77.86,-7.12 -3.18,0.83 -10.62,2.91 -17.32,5.37 12.55,4.92 30.95,10.09 37.14,11.96 12.63,3.76 27.01,8.18 38.8,14.3 9.87,5.09 19.65,13.21 18.07,25.68 -1.59,12.63 -13.47,18.38 -24.17,21.96 -9.45,3.21 -19.41,5.46 -29.02,7.96 -1.59,0.42 -3.1,0.84 -4.69,1.25 5.02,2.67 9.71,5.01 12.04,6.17 13.47,6.63 26.52,11.05 41.32,13.42 10.71,1.67 21.91,2.17 32.11,6.34 21.66,8.88 31.95,32.89 39.81,53.27 2.01,5.29 6.61,18.09 11.46,29.17l0.08 0.09zm-21.66 -112.37c3.68,0 6.61,3.75 6.61,8.42 0,4.71 -3.01,8.46 -6.61,8.46 -3.6,0 -6.6,-3.75 -6.6,-8.46 0,-4.67 3,-8.42 6.6,-8.42z"/>
   <path class="fil0" d="M559.6 393.63c-30.36,-20.34 -60.29,-21.25 -108.55,-2.87 -48.26,18.34 -90.15,14.42 -147.86,2.37 -57.7,-12.04 -70.75,-20.84 -130.63,-1.41 -40.14,13.04 -88.81,8.42 -133.97,3.91 -16.15,-1.58 -12.13,26.18 18.81,32.6 43.49,9.04 102.2,-17.05 154.89,-27.09 77.27,-14.63 139.99,57.97 226.97,21.67 94.41,-39.39 108.8,33.01 191.34,0.67 35.46,-13.88 73.85,-28.18 103.87,-24.01 8.95,1.25 7.28,-6.34 1.59,-10.71 -43.99,-33.68 -113.07,47.35 -176.46,4.96l0 -0.09z"/>
  </g>
 </g>
</svg>
